# xmcd CD database file
#
# Track frame offsets:
#	150
#	13686
#	24334
#	33594
#	64081
#	75974
#	93931
#	114140
#	127788
#	146924
#	163411
#	178467
#	209398
#	227424
#
# Disc length: 3352 seconds
#
# Revision: 0
# Processed by: cddbd v1.5.2PL0 Copyright (c) Steve Scherf et al.
# Submitted via: CDex 1.51
#
DISCID=b10d160e
DTITLE=Alfredo Merino - aroma de mango
DYEAR=1900
DGENRE=New Age
TTITLE0=Poliera Amarilla
TTITLE1=Fina Estamya
TTITLE2=Gangaseiro
TTITLE3=Parece un homo
TTITLE4=Never on sundays
TTITLE5=Capullito de Aleli
TTITLE6=Suena a Lluvia
TTITLE7=Ypacarai
TTITLE8=Rio frio
TTITLE9=Llegada
TTITLE10=Ansiedad
TTITLE11=Aroma de Mango
TTITLE12=La Paloma
TTITLE13=Virgines del Sol
EXTD=
EXTT0=
EXTT1=
EXTT2=
EXTT3=
EXTT4=
EXTT5=
EXTT6=
EXTT7=
EXTT8=
EXTT9=
EXTT10=
EXTT11=
EXTT12=
EXTT13=
PLAYORDER=
